<svg width="28" height="28" viewBox="0 0 28 28" fill="none" xmlns="http://www.w3.org/2000/svg">
<path d="M22.4 3.5H5.6C4.4402 3.5 3.5 4.41409 3.5 5.54167V9.625C3.5 10.7526 4.4402 11.6667 5.6 11.6667H22.4C23.5598 11.6667 24.5 10.7526 24.5 9.625V5.54167C24.5 4.41409 23.5598 3.5 22.4 3.5Z" stroke="#A9A9A9" stroke-width="2.2" stroke-linecap="round" stroke-linejoin="round"/>
<path d="M22.4 16.3334H5.6C4.4402 16.3334 3.5 17.2475 3.5 18.375V22.4584C3.5 23.586 4.4402 24.5 5.6 24.5H22.4C23.5598 24.5 24.5 23.586 24.5 22.4584V18.375C24.5 17.2475 23.5598 16.3334 22.4 16.3334Z" stroke="#A9A9A9" stroke-width="2.2" stroke-linecap="round" stroke-linejoin="round"/>
</svg>
