<svg width="66" height="66" viewBox="0 0 66 66" fill="none" xmlns="http://www.w3.org/2000/svg">
<path d="M43.4722 57.5195C39.5618 57.5195 36.2028 56.7739 33.3953 55.2828C30.5877 53.7916 28.432 51.6874 26.9279 48.9702C25.4573 46.2529 24.722 43.0718 24.722 39.4267C24.722 35.7817 25.4573 32.6171 26.9279 29.933C28.432 27.2157 30.5877 25.1115 33.3953 23.6204C36.2028 22.1292 39.5618 21.3836 43.4722 21.3836C45.8118 21.3836 48.0679 21.7481 50.2404 22.4772C52.036 23.0523 53.5463 23.786 54.7711 24.6781C55.2258 25.0093 55.3707 25.6104 55.1696 26.1358L53.3687 30.8431C53.0548 31.6637 52.0492 31.9612 51.2941 31.5119C50.3078 30.9252 49.3215 30.4652 48.3353 30.1318C46.8646 29.6016 45.3606 29.3365 43.8232 29.3365C40.7149 29.3365 38.3753 30.2146 36.8044 31.9709C35.2335 33.694 34.4481 36.1793 34.4481 39.4267C34.4481 42.7073 35.2335 45.2257 36.8044 46.982C38.3753 48.7051 40.7149 49.5666 43.8232 49.5666C45.3606 49.5666 46.8646 49.3181 48.3353 48.8211C49.3224 48.4652 50.3095 47.9899 51.2966 47.3951C52.0492 46.9416 53.0548 47.2394 53.3687 48.0601L55.1696 52.7673C55.3707 53.2928 55.2257 53.8936 54.7718 54.226C53.5469 55.1231 52.0364 55.873 50.2404 56.4757C48.0679 57.1716 45.8118 57.5195 43.4722 57.5195Z" fill="url(#paint0_linear)"/>
<path d="M19.3686 9.33837C19.3686 8.59921 19.9678 8 20.7069 8H28.7371C29.4763 8 30.0755 8.59921 30.0755 9.33837V17.3686C30.0755 18.1077 29.4763 18.7069 28.7371 18.7069H20.7069C19.9678 18.7069 19.3686 18.1077 19.3686 17.3686V9.33837Z" fill="url(#paint1_linear)"/>
<path d="M10 18.7069C10 17.9678 10.5992 17.3686 11.3384 17.3686H19.3686C20.1077 17.3686 20.7069 17.9678 20.7069 18.7069V26.7371C20.7069 27.4763 20.1077 28.0755 19.3686 28.0755H11.3384C10.5992 28.0755 10 27.4763 10 26.7371V18.7069Z" fill="url(#paint2_linear)"/>
<defs>
<linearGradient id="paint0_linear" x1="23.1781" y1="25.0621" x2="59.2627" y2="31.5298" gradientUnits="userSpaceOnUse">
<stop stop-color="#14C1FA"/>
<stop offset="1" stop-color="#02BCF0"/>
</linearGradient>
<linearGradient id="paint1_linear" x1="18.8272" y1="9.08993" x2="31.3239" y2="11.7405" gradientUnits="userSpaceOnUse">
<stop stop-color="#14C1FA"/>
<stop offset="1" stop-color="#02BCF0"/>
</linearGradient>
<linearGradient id="paint2_linear" x1="9.45864" y1="18.4585" x2="21.9553" y2="21.1091" gradientUnits="userSpaceOnUse">
<stop stop-color="#14C1FA"/>
<stop offset="1" stop-color="#02BCF0"/>
</linearGradient>
</defs>
</svg>
